<svg width="143" height="36" viewBox="0 0 143 36" fill="none" xmlns="http://www.w3.org/2000/svg">
<mask id="mask0_9_15" style="mask-type:luminance" maskUnits="userSpaceOnUse" x="0" y="0" width="143" height="36">
<path d="M142.036 0H0V36H142.036V0Z" fill="white"/>
</mask>
<g mask="url(#mask0_9_15)">
<path d="M26.88 2.4227C24.131 0.805899 21.143 0 17.906 0C14.67 0 11.677 0.805899 8.93301 2.4227C6.19001 4.0395 4.014 6.2219 2.41 8.98C0.802004 11.738 0 14.7464 0 18C0 21.2536 0.802004 24.262 2.41 27.02C4.014 29.7781 6.19001 31.9655 8.93301 33.5773C11.677 35.1891 14.67 36 17.906 36C21.143 36 24.136 35.1941 26.88 33.5773C29.623 31.9655 31.799 29.7781 33.403 27.02C35.006 24.262 35.813 21.2536 35.813 18C35.813 14.7464 35.011 11.738 33.403 8.98C31.799 6.2219 29.623 4.0345 26.88 2.4227ZM18.992 24.5172C16.97 24.5172 15.347 23.9366 14.117 22.7803C13.265 21.9794 12.713 21.0033 12.454 19.8721H31.774C31.575 21.5139 31.102 23.0606 30.365 24.5172H18.992ZM12.459 16.203C12.723 15.0868 13.27 14.1207 14.117 13.3148C15.347 12.1435 16.97 11.5578 18.992 11.5578H30.405C31.132 13.0145 31.59 14.5612 31.779 16.203H12.459ZM5.78601 10.837C7.03101 8.6646 8.71901 6.9377 10.855 5.6663C12.992 4.3899 15.342 3.7542 17.906 3.7542C20.471 3.7542 22.821 4.3899 24.957 5.6663C26.048 6.317 27.019 7.0879 27.875 7.9689H18.838C16.791 7.9689 14.973 8.3993 13.38 9.2553C11.787 10.1162 10.552 11.2925 9.67001 12.7892C9.05301 13.8404 8.654 14.9816 8.47 16.208H4.02802C4.25302 14.2909 4.83501 12.5039 5.78601 10.837ZM24.957 30.3387C22.821 31.6151 20.471 32.2508 17.906 32.2508C15.342 32.2508 12.992 31.6151 10.855 30.3387C8.71901 29.0623 7.03101 27.3404 5.78601 25.168C4.85001 23.5261 4.26199 21.7642 4.03299 19.8771H8.47C8.654 21.1034 9.05301 22.2397 9.67001 23.2959C10.552 24.7925 11.787 25.9689 13.38 26.8298C14.973 27.6908 16.791 28.1162 18.838 28.1162H27.801C26.964 28.9672 26.013 29.708 24.957 30.3437V30.3387Z" fill="white"/>
<path d="M64.707 23.7964L61.286 10.6167C61.052 9.70574 60.604 8.98494 59.946 8.44934C59.284 7.91374 58.492 7.64844 57.556 7.64844C56.62 7.64844 55.868 7.91374 55.206 8.44934C54.544 8.98494 54.1 9.70574 53.866 10.6167L50.495 23.7313L46.293 7.96384H41.438L46.527 25.298C47.124 27.4304 48.404 28.5016 50.371 28.5016C51.407 28.5016 52.228 28.2163 52.836 27.6406C53.443 27.07 53.876 26.2891 54.135 25.298L57.551 12.0083L60.932 25.298C61.475 27.4304 62.76 28.5016 64.777 28.5016C66.793 28.5016 67.998 27.4354 68.621 25.298L73.67 7.96384H68.855L64.702 23.8014L64.707 23.7964Z" fill="white"/>
<path d="M90.59 8.84847C88.947 7.89737 87.099 7.42188 85.058 7.42188C83.016 7.42188 81.203 7.89737 79.56 8.84847C77.917 9.79947 76.627 11.0809 75.696 12.6927C74.765 14.3095 74.297 16.0915 74.297 18.0437C74.297 19.9958 74.765 21.7778 75.696 23.3946C76.627 25.0064 77.917 26.2928 79.56 27.2389C81.203 28.19 83.036 28.6655 85.058 28.6655C87.079 28.6655 88.947 28.19 90.59 27.2389C92.233 26.2878 93.523 25.0064 94.454 23.3946C95.385 21.7828 95.853 19.9958 95.853 18.0437C95.853 16.0915 95.385 14.3095 94.454 12.6927C93.523 11.0809 92.233 9.79947 90.59 8.84847ZM90.416 21.3223C89.898 22.3134 89.181 23.0943 88.259 23.6649C87.338 24.2356 86.283 24.5259 85.093 24.5259C83.902 24.5259 82.847 24.2406 81.926 23.6649C81.004 23.0943 80.287 22.3184 79.769 21.3423C79.252 20.3663 78.993 19.265 78.993 18.0437C78.993 16.8223 79.252 15.7511 79.769 14.765C80.287 13.7739 81.004 12.9931 81.926 12.4224C82.842 11.8518 83.897 11.5615 85.093 11.5615C86.288 11.5615 87.338 11.8468 88.259 12.4224C89.176 12.9931 89.898 13.7689 90.416 14.745C90.934 15.7211 91.192 16.8223 91.192 18.0437C91.192 19.265 90.934 20.3362 90.416 21.3223Z" fill="white"/>
<path d="M105.103 9.11691C104.172 9.81771 103.499 10.7437 103.081 11.9V7.96561H98.5V28.113H103.121V19.133C103.121 16.7404 103.684 15.0134 104.809 13.9623C105.934 12.9061 107.548 12.3705 109.644 12.3405H109.759V7.69531H109.604C107.871 7.69531 106.368 8.17081 105.098 9.12191L105.103 9.11691Z" fill="white"/>
<path d="M117.822 23.493C117.394 22.9875 117.18 22.1966 117.18 21.1304V0.242188H112.559V21.716C112.559 23.9535 113.141 25.6004 114.306 26.6565C115.472 27.7127 117.234 28.2383 119.59 28.2383H120.058V24.2939C118.997 24.2689 118.25 24.0036 117.822 23.493Z" fill="white"/>
<path d="M137.417 0.242188V10.4936C136.983 9.87789 136.421 9.32729 135.729 8.85179C134.344 7.90069 132.706 7.42519 130.814 7.42519C128.822 7.42519 127.054 7.88069 125.511 8.79169C123.972 9.70269 122.772 10.9741 121.92 12.5959C121.064 14.2227 120.641 16.0397 120.641 18.042C120.641 20.0442 121.059 21.8962 121.905 23.508C122.747 25.1248 123.937 26.3862 125.481 27.2972C127.019 28.2083 128.802 28.6638 130.819 28.6638C132.064 28.6638 133.214 28.4485 134.275 28.018C135.335 27.5876 136.217 26.9769 136.914 26.181C137.103 25.9708 137.267 25.7505 137.417 25.5253V28.1132H142.038V0.242188H137.417ZM136.754 21.3857C136.237 22.3868 135.51 23.1777 134.578 23.7483C133.647 24.3189 132.572 24.6093 131.357 24.6093C130.142 24.6093 129.076 24.3239 128.17 23.7483C127.263 23.1777 126.561 22.3868 126.073 21.3857C125.58 20.3846 125.336 19.2733 125.336 18.047C125.336 16.8206 125.58 15.7094 126.073 14.7083C126.566 13.7071 127.263 12.9213 128.17 12.3456C129.076 11.775 130.137 11.4847 131.357 11.4847C132.577 11.4847 133.647 11.77 134.578 12.3456C135.51 12.9163 136.237 13.7071 136.754 14.7083C137.272 15.7094 137.531 16.8256 137.531 18.047C137.531 19.2683 137.272 20.3846 136.754 21.3857Z" fill="white"/>
</g>
</svg>
